# xmcd CD database file
#
# Track frame offsets:
#	150
#	19190
#	38242
#
# Disc length: 839 seconds
#
# Revision: 6
# Processed by: cddbd v1.4PL0 Copyright (c) Steve Scherf et al.
# Submitted via: CDex 1.40Release
#
DISCID=1c034503
DTITLE=Zeebra - Neva Enuff
DYEAR=1900
DGENRE=
TTITLE0=Neva Enuff Feat, Aktion
TTITLE1=Neva Enuff [Instrumental]
TTITLE2=ã© Feat. Oj and St [Inovader Remix]
EXTD=
EXTT0=
EXTT1=
EXTT2=
PLAYORDER=
